<?xml version="1.0" encoding="UTF-8"?>
<!DOCTYPE svg PUBLIC "-//W3C//DTD SVG 1.1//EN" "http://www.w3.org/Graphics/SVG/1.1/DTD/svg11.dtd">
<svg xmlns="http://www.w3.org/2000/svg" version="1.1" width="465px" height="127px" style="shape-rendering:geometricPrecision; text-rendering:geometricPrecision; image-rendering:optimizeQuality; fill-rule:evenodd; clip-rule:evenodd" xmlns:xlink="http://www.w3.org/1999/xlink">
<g><path style="opacity:1" fill="#161616" d="M 50.5,12.5 C 50.427,14.0269 51.0937,15.0269 52.5,15.5C 53.9313,16.7804 54.5979,18.4471 54.5,20.5C 54.5,28.1667 54.5,35.8333 54.5,43.5C 50.1667,43.5 45.8333,43.5 41.5,43.5C 41.8229,37.31 41.4896,31.31 40.5,25.5C 37.8898,20.1449 34.0564,19.1449 29,22.5C 26.3181,31.6589 27.3181,40.3255 32,48.5C 37.7092,54.7052 43.2092,61.0385 48.5,67.5C 48.427,69.0269 49.0937,70.0269 50.5,70.5C 52.8367,72.9647 54.3367,75.9647 55,79.5C 55.6667,87.8333 55.6667,96.1667 55,104.5C 49.672,117.414 40.172,122.248 26.5,119C 19.214,116.236 14.8806,111.069 13.5,103.5C 13.5,96.1667 13.5,88.8333 13.5,81.5C 18.1667,81.5 22.8333,81.5 27.5,81.5C 27.3339,87.1764 27.5006,92.8431 28,98.5C 28.79,104.124 31.9567,105.957 37.5,104C 38.7014,103.097 39.5348,101.931 40,100.5C 40.6667,94.8333 40.6667,89.1667 40,83.5C 39.1083,80.0482 37.4416,77.0482 35,74.5C 27.5799,67.0842 20.9132,59.0842 15,50.5C 11.6667,38.8333 11.6667,27.1667 15,15.5C 23.9185,3.97563 34.7518,1.80896 47.5,9C 48.7101,10.0391 49.7101,11.2058 50.5,12.5 Z"/></g>
<g><path style="opacity:1" fill="#161616" d="M 197.5,9.5 C 197.427,11.0269 198.094,12.0269 199.5,12.5C 202.741,14.9826 204.408,18.3159 204.5,22.5C 204.5,29.5 204.5,36.5 204.5,43.5C 199.833,43.5 195.167,43.5 190.5,43.5C 190.823,36.9779 190.49,30.6446 189.5,24.5C 187.608,20.8316 184.608,19.6649 180.5,21C 179.299,21.9025 178.465,23.0692 178,24.5C 177.833,37.1667 177.667,49.8333 177.5,62.5C 177.35,75.9242 177.85,89.2576 179,102.5C 182.663,105.333 185.996,105 189,101.5C 189.5,94.5079 189.666,87.5079 189.5,80.5C 194.833,80.5 200.167,80.5 205.5,80.5C 205.876,89.2354 205.376,97.9021 204,106.5C 195.909,120.255 184.743,123.422 170.5,116C 166.619,113.072 164.119,109.239 163,104.5C 162.333,76.1667 162.333,47.8333 163,19.5C 169.474,6.34676 179.641,2.1801 193.5,7C 194.984,7.66218 196.317,8.49551 197.5,9.5 Z"/></g>
<g><path style="opacity:1" fill="#959180" d="M 380.5,4.5 C 392.121,3.87818 399.955,8.87818 404,19.5C 404.913,28.5764 404.58,37.5764 403,46.5C 400.341,52.4918 395.841,56.3252 389.5,58C 376.578,60.7883 367.411,56.2883 362,44.5C 361.083,35.0909 361.416,25.7576 363,16.5C 366.825,9.49865 372.659,5.49865 380.5,4.5 Z M 379.5,18.5 C 381.857,18.3367 384.19,18.5034 386.5,19C 388.333,19.5 389.5,20.6667 390,22.5C 390.667,28.8333 390.667,35.1667 390,41.5C 385.333,46.8333 380.667,46.8333 376,41.5C 375.333,34.8333 375.333,28.1667 376,21.5C 377.145,20.3636 378.312,19.3636 379.5,18.5 Z"/></g>
<g><path style="opacity:1" fill="#767676" d="M 105.5,6.5 C 91.5,6.5 77.5,6.5 63.5,6.5C 63.5,21.5 63.5,36.5 63.5,51.5C 62.5038,36.3424 62.1705,21.0091 62.5,5.5C 77.0097,5.17075 91.3431,5.50408 105.5,6.5 Z"/></g>
<g><path style="opacity:1" fill="#111111" d="M 105.5,6.5 C 105.5,10.5 105.5,14.5 105.5,18.5C 95.5,18.5 85.5,18.5 75.5,18.5C 75.1936,21.3854 75.5269,24.0521 76.5,26.5C 84.8333,26.5 93.1667,26.5 101.5,26.5C 101.5,29.8333 101.5,33.1667 101.5,36.5C 92.9832,36.1739 84.6499,36.5073 76.5,37.5C 76.5,39.5 76.5,41.5 76.5,43.5C 85.7755,45.4733 95.4422,46.14 105.5,45.5C 105.5,49.8333 105.5,54.1667 105.5,58.5C 94.1618,58.6665 82.8284,58.4999 71.5,58C 67.4338,57.4239 64.7671,55.2573 63.5,51.5C 63.5,36.5 63.5,21.5 63.5,6.5C 77.5,6.5 91.5,6.5 105.5,6.5 Z"/></g>
<g><path style="opacity:1" fill="#121212" d="M 140.5,6.5 C 148.075,8.24037 152.908,12.907 155,20.5C 155.899,30.8934 155.566,41.2267 154,51.5C 152.052,58.5705 147.552,63.0705 140.5,65C 148.535,67.1981 153.201,72.3648 154.5,80.5C 154.5,93.1667 154.5,105.833 154.5,118.5C 149.833,118.5 145.167,118.5 140.5,118.5C 140.927,104.774 140.427,91.1069 139,77.5C 135.96,74.0337 132.126,72.7004 127.5,73.5C 127.5,88.5 127.5,103.5 127.5,118.5C 122.833,118.5 118.167,118.5 113.5,118.5C 113.5,81.1667 113.5,43.8333 113.5,6.5C 122.5,6.5 131.5,6.5 140.5,6.5 Z M 127.5,20.5 C 132.126,19.7004 135.96,21.0337 139,24.5C 141.295,35.2947 140.961,45.9613 138,56.5C 137.5,57 137,57.5 136.5,58C 133.518,58.498 130.518,58.6646 127.5,58.5C 127.5,45.8333 127.5,33.1667 127.5,20.5 Z"/></g>
<g><path style="opacity:1" fill="#0f0f0f" d="M 227.5,44.5 C 231.833,44.5 236.167,44.5 240.5,44.5C 240.5,31.8333 240.5,19.1667 240.5,6.5C 245.167,6.5 249.833,6.5 254.5,6.5C 254.5,36.5 254.5,66.5 254.5,96.5C 249.5,96.5 244.5,96.5 239.5,96.5C 239.5,83.8333 239.5,71.1667 239.5,58.5C 235.5,58.5 231.5,58.5 227.5,58.5C 227.5,71.1667 227.5,83.8333 227.5,96.5C 222.5,96.5 217.5,96.5 212.5,96.5C 212.5,66.5 212.5,36.5 212.5,6.5C 217.167,6.5 221.833,6.5 226.5,6.5C 226.171,19.3443 226.505,32.011 227.5,44.5 Z"/></g>
<g><path style="opacity:1" fill="#a8a8a8" d="M 227.5,43.5 C 227.5,43.8333 227.5,44.1667 227.5,44.5C 226.505,32.011 226.171,19.3443 226.5,6.5C 221.833,6.5 217.167,6.5 212.5,6.5C 212.5,36.5 212.5,66.5 212.5,96.5C 211.502,66.3379 211.169,36.0046 211.5,5.5C 216.833,5.5 222.167,5.5 227.5,5.5C 227.5,18.1667 227.5,30.8333 227.5,43.5 Z"/></g>
<g><path style="opacity:0.965" fill="#cacaca" d="M 240.5,5.5 C 240.5,5.83333 240.5,6.16667 240.5,6.5C 240.5,19.1667 240.5,31.8333 240.5,44.5C 236.167,44.5 231.833,44.5 227.5,44.5C 227.5,44.1667 227.5,43.8333 227.5,43.5C 231.5,43.5 235.5,43.5 239.5,43.5C 239.171,30.6557 239.505,17.989 240.5,5.5 Z"/></g>
<g><path style="opacity:1" fill="#9b9b9b" d="M 240.5,6.5 C 240.5,6.16667 240.5,5.83333 240.5,5.5C 245.5,5.5 250.5,5.5 255.5,5.5C 255.831,36.0046 255.498,66.3379 254.5,96.5C 254.5,66.5 254.5,36.5 254.5,6.5C 249.833,6.5 245.167,6.5 240.5,6.5 Z"/></g>
<g><path style="opacity:1" fill="#959180" d="M 332.5,84.5 C 332.281,85.675 332.614,86.675 333.5,87.5C 334.491,83.5546 334.824,79.5546 334.5,75.5C 335.43,52.3928 337.596,29.3928 341,6.5C 346.072,5.52865 351.238,5.19532 356.5,5.5C 351.663,43.5264 346.663,81.5264 341.5,119.5C 335.833,119.5 330.167,119.5 324.5,119.5C 321.309,95.2518 318.975,70.9185 317.5,46.5C 317.663,44.1432 317.497,41.8098 317,39.5C 315.763,43.0601 315.263,46.7267 315.5,50.5C 314.156,73.6047 311.823,96.6047 308.5,119.5C 302.833,119.5 297.167,119.5 291.5,119.5C 286.686,81.4706 281.686,43.4706 276.5,5.5C 281.833,5.5 287.167,5.5 292.5,5.5C 296.056,32.3953 298.556,59.3953 300,86.5C 301.585,59.4072 304.085,32.4072 307.5,5.5C 313.5,5.5 319.5,5.5 325.5,5.5C 329.374,31.6962 331.707,58.0295 332.5,84.5 Z"/></g>
<g><path style="opacity:1" fill="#aaa799" d="M 437.5,6.5 C 429.167,6.5 420.833,6.5 412.5,6.5C 412.5,43.8333 412.5,81.1667 412.5,118.5C 420.5,118.5 428.5,118.5 436.5,118.5C 428.35,119.493 420.017,119.826 411.5,119.5C 411.5,81.5 411.5,43.5 411.5,5.5C 420.349,5.17364 429.016,5.50698 437.5,6.5 Z"/></g>
<g><path style="opacity:1" fill="#918d7c" d="M 437.5,6.5 C 446.379,8.21078 451.879,13.5441 454,22.5C 454.667,49.1667 454.667,75.8333 454,102.5C 451.809,111.859 445.976,117.193 436.5,118.5C 428.5,118.5 420.5,118.5 412.5,118.5C 412.5,81.1667 412.5,43.8333 412.5,6.5C 420.833,6.5 429.167,6.5 437.5,6.5 Z M 426.5,20.5 C 430.79,19.9874 434.623,20.9874 438,23.5C 439.129,36.6138 439.629,49.7805 439.5,63C 439.333,74.8333 439.167,86.6667 439,98.5C 438.602,101.232 437.102,103.065 434.5,104C 431.854,104.497 429.187,104.664 426.5,104.5C 426.5,76.5 426.5,48.5 426.5,20.5 Z"/></g>
<g><path style="opacity:1" fill="#8b8b8b" d="M 197.5,9.5 C 198.906,9.97306 199.573,10.9731 199.5,12.5C 198.094,12.0269 197.427,11.0269 197.5,9.5 Z"/></g>
<g><path style="opacity:1" fill="#979797" d="M 50.5,12.5 C 51.9063,12.9731 52.573,13.9731 52.5,15.5C 51.0937,15.0269 50.427,14.0269 50.5,12.5 Z"/></g>
<g><path style="opacity:1" fill="#b3b3b3" d="M 105.5,18.5 C 96.0144,19.4938 86.3478,19.8271 76.5,19.5C 76.5,21.8333 76.5,24.1667 76.5,26.5C 75.5269,24.0521 75.1936,21.3854 75.5,18.5C 85.5,18.5 95.5,18.5 105.5,18.5 Z"/></g>
<g><path style="opacity:1" fill="#585858" d="M 101.5,26.5 C 102.482,29.9619 102.815,33.6286 102.5,37.5C 93.8333,37.5 85.1667,37.5 76.5,37.5C 84.6499,36.5073 92.9832,36.1739 101.5,36.5C 101.5,33.1667 101.5,29.8333 101.5,26.5 Z"/></g>
<g><path style="opacity:1" fill="#444444" d="M 54.5,20.5 C 55.4924,28.3159 55.8257,36.3159 55.5,44.5C 50.5,44.5 45.5,44.5 40.5,44.5C 40.5,38.1667 40.5,31.8333 40.5,25.5C 41.4896,31.31 41.8229,37.31 41.5,43.5C 45.8333,43.5 50.1667,43.5 54.5,43.5C 54.5,35.8333 54.5,28.1667 54.5,20.5 Z"/></g>
<g><path style="opacity:1" fill="#808080" d="M 204.5,22.5 C 205.492,29.6476 205.825,36.9809 205.5,44.5C 200.167,44.5 194.833,44.5 189.5,44.5C 189.5,37.8333 189.5,31.1667 189.5,24.5C 190.49,30.6446 190.823,36.9779 190.5,43.5C 195.167,43.5 199.833,43.5 204.5,43.5C 204.5,36.5 204.5,29.5 204.5,22.5 Z"/></g>
<g><path style="opacity:1" fill="#bababa" d="M 76.5,43.5 C 86.2655,44.1432 95.9322,44.8098 105.5,45.5C 95.4422,46.14 85.7755,45.4733 76.5,43.5 Z"/></g>
<g><path style="opacity:0.976" fill="#d4d3cc" d="M 317.5,46.5 C 316.833,47.8333 316.167,49.1667 315.5,50.5C 315.263,46.7267 315.763,43.0601 317,39.5C 317.497,41.8098 317.663,44.1432 317.5,46.5 Z"/></g>
<g><path style="opacity:1" fill="#444444" d="M 140.5,6.5 C 131.5,6.5 122.5,6.5 113.5,6.5C 113.5,43.8333 113.5,81.1667 113.5,118.5C 118.167,118.5 122.833,118.5 127.5,118.5C 122.695,119.487 117.695,119.821 112.5,119.5C 112.5,81.5 112.5,43.5 112.5,5.5C 122.015,5.17311 131.348,5.50644 140.5,6.5 Z"/></g>
<g><path style="opacity:1" fill="#0f0f0f" d="M 103.5,77.5 C 104.427,91.1371 104.76,104.804 104.5,118.5C 100.5,118.5 96.5,118.5 92.5,118.5C 92.5,115.5 92.5,112.5 92.5,109.5C 86.8333,109.5 81.1667,109.5 75.5,109.5C 75.5,112.5 75.5,115.5 75.5,118.5C 71.5,118.5 67.5,118.5 63.5,118.5C 63.5,105.833 63.5,93.1667 63.5,80.5C 63.2627,79.209 63.596,78.209 64.5,77.5C 65.9063,77.0269 66.573,76.0269 66.5,74.5C 72.8386,67.1864 80.8386,64.6864 90.5,67C 96.5172,68.5265 100.851,72.0265 103.5,77.5 Z M 91.5,83.5 C 91.5,87.8333 91.5,92.1667 91.5,96.5C 86.5,96.5 81.5,96.5 76.5,96.5C 76.5,92.1667 76.5,87.8333 76.5,83.5C 81.5,78.1667 86.5,78.1667 91.5,83.5 Z"/></g>
<g><path style="opacity:1" fill="#b1afa2" d="M 362.5,67.5 C 362.5,84.5 362.5,101.5 362.5,118.5C 366.5,118.5 370.5,118.5 374.5,118.5C 374.182,113.968 374.515,109.634 375.5,105.5C 375.5,110.167 375.5,114.833 375.5,119.5C 370.833,119.5 366.167,119.5 361.5,119.5C 361.17,101.992 361.503,84.6586 362.5,67.5 Z"/></g>
<g><path style="opacity:1" fill="#938f7e" d="M 362.5,67.5 C 372.506,67.3335 382.506,67.5002 392.5,68C 401.836,71.1617 405.669,77.6617 404,87.5C 402.193,93.3072 398.36,97.1405 392.5,99C 401.534,102.902 405.534,109.736 404.5,119.5C 399.5,119.5 394.5,119.5 389.5,119.5C 391.145,108.478 386.478,103.812 375.5,105.5C 374.515,109.634 374.182,113.968 374.5,118.5C 370.5,118.5 366.5,118.5 362.5,118.5C 362.5,101.5 362.5,84.5 362.5,67.5 Z M 375.5,80.5 C 379.514,80.3345 383.514,80.5012 387.5,81C 391.213,82.6912 392.379,85.5245 391,89.5C 389.729,90.8825 388.229,91.8825 386.5,92.5C 382.833,92.5 379.167,92.5 375.5,92.5C 375.5,88.5 375.5,84.5 375.5,80.5 Z"/></g>
<g><path style="opacity:1" fill="#808080" d="M 48.5,67.5 C 49.9063,67.9731 50.573,68.9731 50.5,70.5C 49.0937,70.0269 48.427,69.0269 48.5,67.5 Z"/></g>
<g><path style="opacity:1" fill="#8a8a8a" d="M 66.5,74.5 C 66.573,76.0269 65.9063,77.0269 64.5,77.5C 64.427,75.9731 65.0937,74.9731 66.5,74.5 Z"/></g>
<g><path style="opacity:1" fill="#686868" d="M 27.5,81.5 C 22.8333,81.5 18.1667,81.5 13.5,81.5C 13.5,88.8333 13.5,96.1667 13.5,103.5C 12.508,96.0182 12.1746,88.3516 12.5,80.5C 17.6946,80.1795 22.6946,80.5128 27.5,81.5 Z"/></g>
<g><path style="opacity:1" fill="#d1cfc8" d="M 334.5,75.5 C 334.824,79.5546 334.491,83.5546 333.5,87.5C 332.614,86.675 332.281,85.675 332.5,84.5C 333.167,81.5 333.833,78.5 334.5,75.5 Z"/></g>
<g><path style="opacity:1" fill="#717171" d="M 154.5,80.5 C 155.495,93.3226 155.829,106.323 155.5,119.5C 150.305,119.821 145.305,119.487 140.5,118.5C 145.167,118.5 149.833,118.5 154.5,118.5C 154.5,105.833 154.5,93.1667 154.5,80.5 Z"/></g>
<g><path style="opacity:1" fill="#525252" d="M 103.5,77.5 C 104.268,78.2625 104.768,79.2625 105,80.5C 105.5,93.1623 105.667,105.829 105.5,118.5C 105.167,118.5 104.833,118.5 104.5,118.5C 104.76,104.804 104.427,91.1371 103.5,77.5 Z"/></g>
<g><path style="opacity:0.494" fill="#d6d4ce" d="M 375.5,80.5 C 375.5,84.5 375.5,88.5 375.5,92.5C 379.167,92.5 382.833,92.5 386.5,92.5C 382.702,93.4834 378.702,93.8168 374.5,93.5C 374.182,88.9677 374.515,84.6344 375.5,80.5 Z"/></g>
<g><path style="opacity:1" fill="#9a9a9a" d="M 76.5,83.5 C 76.5,87.8333 76.5,92.1667 76.5,96.5C 81.5,96.5 86.5,96.5 91.5,96.5C 91.5,92.1667 91.5,87.8333 91.5,83.5C 92.4861,87.97 92.8195,92.6367 92.5,97.5C 86.8333,97.5 81.1667,97.5 75.5,97.5C 75.1805,92.6367 75.5139,87.97 76.5,83.5 Z"/></g>
<g><path style="opacity:1" fill="#7e7e7e" d="M 63.5,80.5 C 63.5,93.1667 63.5,105.833 63.5,118.5C 67.5,118.5 71.5,118.5 75.5,118.5C 75.5,115.5 75.5,112.5 75.5,109.5C 81.1667,109.5 86.8333,109.5 92.5,109.5C 92.5,112.5 92.5,115.5 92.5,118.5C 96.5,118.5 100.5,118.5 104.5,118.5C 104.833,118.5 105.167,118.5 105.5,118.5C 101.03,119.486 96.3633,119.819 91.5,119.5C 91.5,116.5 91.5,113.5 91.5,110.5C 86.5,110.5 81.5,110.5 76.5,110.5C 76.5,113.5 76.5,116.5 76.5,119.5C 71.8333,119.5 67.1667,119.5 62.5,119.5C 62.1712,106.323 62.5045,93.3226 63.5,80.5 Z"/></g>
<g><path style="opacity:1" fill="#9a9a9a" d="M 212.5,104.5 C 212.5,109.167 212.5,113.833 212.5,118.5C 226.5,118.5 240.5,118.5 254.5,118.5C 254.5,113.833 254.5,109.167 254.5,104.5C 255.487,109.305 255.821,114.305 255.5,119.5C 240.833,119.5 226.167,119.5 211.5,119.5C 211.179,114.305 211.513,109.305 212.5,104.5 Z"/></g>
<g><path style="opacity:1" fill="#0f0f0f" d="M 212.5,104.5 C 226.5,104.5 240.5,104.5 254.5,104.5C 254.5,109.167 254.5,113.833 254.5,118.5C 240.5,118.5 226.5,118.5 212.5,118.5C 212.5,113.833 212.5,109.167 212.5,104.5 Z"/></g>
</svg>
